<svg xmlns="http://www.w3.org/2000/svg" width="500" height="500" style="width:100%;height:100%;transform:translate3d(0,0,0);content-visibility:visible" viewBox="0 0 500 500"><defs><clipPath id="c"><path d="M0 0h500v500H0z"/></clipPath><clipPath id="f"><path d="M0 0h500v500H0z"/></clipPath><clipPath id="d"><path d="M0 0h500v500H0z"/></clipPath><filter id="a" width="100%" height="100%" x="0%" y="0%" filterUnits="objectBoundingBox"><feComponentTransfer in="SourceGraphic"><feFuncA tableValues="1.0 0.0" type="table"/></feComponentTransfer></filter><path id="b" class="primary design" style="display:none"/><mask id="e" mask-type="alpha"><g filter="url(#a)"><path fill="#fff" d="M0 0h500v500H0z" opacity="0"/><use xmlns:ns1="http://www.w3.org/1999/xlink" ns1:href="#b"/></g></mask></defs><g clip-path="url(#c)"><g clip-path="url(#d)" style="display:block"><g class="primary design" style="display:none"><path fill="none"/><path/><path fill="none"/><path fill="none"/></g><g mask="url(#e)" style="display:none"><path fill="none" class="primary design"/></g><g class="primary design" style="display:none"><path/><path/></g><g fill="#121330" class="primary design" style="display:block"><path d="M458.302 182.304c0-.416-.208-.833-.208-1.25v-61.24c0-20.205-16.456-36.452-36.453-36.452H78.154a36.36 36.36 0 0 0-36.452 36.452V380.19c0 19.997 16.247 36.453 36.452 36.453h343.487c19.997 0 36.453-16.456 36.453-36.453v-61.24c0-.416.208-.833.208-1.25V182.304zm-31.453 119.773h-93.735c-28.746 0-52.075-23.33-52.075-52.075 0-28.745 23.33-52.075 52.075-52.075h93.735v104.15zm-5.208 83.32H78.154c-2.916 0-5.207-2.291-5.207-5.208V119.814c0-2.916 2.291-5.207 5.207-5.207h343.487c2.916 0 5.208 2.291 5.208 5.207v46.868h-93.735c-45.826 0-83.32 37.286-83.32 83.32 0 46.034 37.285 83.32 83.32 83.32h93.735v46.867c0 2.917-2.292 5.208-5.208 5.208z"/><path d="M312.7 250.002c0 11.456 9.374 20.83 20.83 20.83 11.457 0 20.83-9.374 20.83-20.83 0-11.457-9.373-20.83-20.83-20.83h-.208c-11.457 0-20.622 9.373-20.622 20.83z"/></g></g><g clip-path="url(#f)" style="display:none"><g class="primary design" style="display:none"><path fill="none"/><path/><path fill="none"/><path fill="none"/></g><path fill="none" class="primary design" style="display:none"/><g class="primary design" style="display:none"><path/><path/></g></g><g class="com" style="display:none"><path/><path/><path/><path/><path/><path/><path/><path/><path/><path/><path/><path/></g></g></svg>