<svg xmlns="http://www.w3.org/2000/svg" width="500" height="500" style="width:100%;height:100%;transform:translate3d(0,0,0);content-visibility:visible" viewBox="0 0 500 500"><defs><clipPath id="a"><path d="M0 0h500v500H0z"/></clipPath><clipPath id="d"><path d="M0 0h500v500H0z"/></clipPath><clipPath id="c"><path d="M0 0h500v500H0z"/></clipPath><clipPath id="b"><path d="M0 0h500v500H0z"/></clipPath></defs><g clip-path="url(#a)"><g clip-path="url(#b)" opacity="0" style="display:block"><g fill="#121330" class="primary design" opacity="1" style="display:block"><path d="M280.622 41.702c-8.54 0-15.622 7.082-15.622 15.622v162.058c0 8.54 7.082 15.622 15.622 15.622h162.057c8.54 0 15.623-7.082 15.623-15.622 0-97.901-79.779-177.68-177.68-177.68zm15.623 162.057V73.78c68.322 7.29 122.897 61.657 129.979 129.98h-129.98z" opacity="1"/><path d="M381.648 265H235.213V118.355c0-8.54-7.083-15.622-15.623-15.622-98.11 0-177.888 79.779-177.888 177.888 0 97.901 79.779 177.68 177.68 177.68 98.11 0 177.68-79.779 177.68-177.68.208-8.749-6.874-15.623-15.414-15.623zM219.382 427.056c-80.82 0-146.435-65.823-146.435-146.435 0-75.405 57.49-137.895 130.812-145.602v145.602c0 8.54 7.083 15.622 15.623 15.622h145.602c-7.708 73.322-69.99 130.813-145.602 130.813z" opacity="1"/></g><path fill="none" class="primary design" style="display:none"/><path fill="none" class="primary design" style="display:none"/></g><g clip-path="url(#c)" style="display:block"><g class="primary design" style="display:none"><path/><path/></g><g fill="#121330" class="primary design" style="display:block"><path d="M280.622 41.702c-8.54 0-15.622 7.082-15.622 15.622v162.058c0 8.54 7.082 15.622 15.622 15.622h162.057c8.54 0 15.623-7.082 15.623-15.622 0-97.901-79.779-177.68-177.68-177.68zm15.623 162.057V73.78c68.322 7.29 122.897 61.657 129.979 129.98h-129.98z"/><path d="M381.648 265H235.213V118.355c0-8.54-7.083-15.622-15.623-15.622-98.11 0-177.888 79.779-177.888 177.888 0 97.901 79.779 177.68 177.68 177.68 98.11 0 177.68-79.779 177.68-177.68.208-8.749-6.874-15.623-15.414-15.623zM219.382 427.056c-80.82 0-146.435-65.823-146.435-146.435 0-75.405 57.49-137.895 130.812-145.602v145.602c0 8.54 7.083 15.622 15.623 15.622h145.602c-7.708 73.322-69.99 130.813-145.602 130.813z"/></g><path fill="none" class="primary design" style="display:none"/><path fill="none" class="primary design" style="display:none"/></g><g clip-path="url(#d)" opacity="0" style="display:block"><g class="primary design" style="display:none"><path/><path/></g><path fill="none" class="primary design" style="display:none"/><path fill="none" class="primary design" style="display:none"/></g><g class="com" style="display:none"><path/><path/><path/><path/><path/><path/><path/><path/><path/><path/><path/><path/></g></g></svg>