<svg xmlns="http://www.w3.org/2000/svg" width="500" height="500" style="width:100%;height:100%;transform:translate3d(0,0,0);content-visibility:visible" viewBox="0 0 500 500"><defs><clipPath id="c"><path d="M0 0h500v500H0z"/></clipPath><clipPath id="f"><path d="M0 0h500v500H0z"/></clipPath><clipPath id="d"><path d="M0 0h500v500H0z"/></clipPath><filter id="a" width="100%" height="100%" x="0%" y="0%" filterUnits="objectBoundingBox"><feComponentTransfer in="SourceGraphic"><feFuncA tableValues="1.0 0.0" type="table"/></feComponentTransfer></filter><mask id="e" mask-type="alpha"><g filter="url(#a)"><path fill="#fff" d="M0 0h500v500H0z" opacity="0"/><use xmlns:ns1="http://www.w3.org/1999/xlink" ns1:href="#b"/></g></mask><g id="b" class="primary design" style="display:none"><path fill-opacity="0" stroke-linecap="round" stroke-linejoin="round"/><path/></g></defs><g clip-path="url(#c)"><g clip-path="url(#d)" style="display:block"><path fill="none" class="primary design" style="display:none"/><g fill="none" class="primary design" style="display:none"><path/><path/></g><path fill="#121330" d="M192.584-72.64h-45.625c-10.947-17.268-25.554-31.653-42.892-42.246v-67.103c0-8.643-7.006-15.65-15.65-15.65-21.259 0-41.476 7.941-56.927 22.359-11.771 10.984-19.977 24.969-23.855 40.349h-40.467c-66.411 0-121.682 48.571-132.179 112.053-6.859-7.274-12.175-18.663-12.175-28.904v-26.045c0-8.643-7.006-15.65-15.65-15.65s-15.65 7.007-15.65 15.65v26.045c0 26.206 17.529 55.956 42.158 64.983 3.179 37.395 21.843 71.516 51.596 94.13v54.428c0 8.643 7.006 15.65 15.65 15.65h62.5c8.644 0 15.65-7.007 15.65-15.65v-26.016h41.616v26.016c0 8.643 7.006 15.65 15.65 15.65h62.5c8.644 0 15.65-7.007 15.65-15.65v-53.092c22.425-16.733 38.802-39.887 47.223-66.674h30.877c8.644 0 15.65-7.007 15.65-15.65V-56.99c0-8.643-7.006-15.65-15.65-15.65zm-15.65 83.333h-27.267a15.65 15.65 0 0 0-15.301 12.364c-5.743 26.74-21.392 49.587-44.065 64.333a15.653 15.653 0 0 0-7.117 13.119v45.6h-31.2v-26.016c0-8.643-7.006-15.65-15.65-15.65h-72.916c-8.644 0-15.65 7.007-15.65 15.65v26.016h-31.2v-46.85c0-5.25-2.632-10.149-7.009-13.047-28.224-18.691-45.074-50.263-45.074-84.452V-.948c0-56.62 46.064-102.683 102.683-102.683h53.75c8.213 0 15.029-6.35 15.61-14.542 1.534-21.607 16.428-39.468 36.239-45.749v58.182a15.65 15.65 0 0 0 8.486 13.914c18.259 9.4 33.12 24.018 42.977 42.272a15.65 15.65 0 0 0 13.771 8.214h38.933v52.033z" class="primary design" style="display:block" transform="translate(250 250)"/><path class="primary design" style="display:none"/><g class="primary design" mask="url(#e)" style="display:none"><path/><path/><path fill="none"/></g></g><g clip-path="url(#f)" opacity="0" style="display:block"><path fill="none" class="primary design" style="display:none"/><path fill="none" class="primary design" style="display:none"/><path class="primary design" style="display:none"/></g><g class="com" style="display:none"><path/><path/><path/><path/><path/><path/><path/><path/><path/><path/><path/><path/></g></g></svg>